<svg width="182" height="182" viewBox="0 0 182 182" fill="none" xmlns="http://www.w3.org/2000/svg">
<path d="M178.568 126.389C183.555 114.1 182.224 100.818 176.099 90.1435C182.069 79.381 183.208 66.0812 178.044 53.866C172.88 41.6508 162.548 33.1996 150.669 29.9827C147.28 18.1504 138.68 7.94046 126.391 2.95402C114.103 -2.03223 100.82 -0.701738 90.1455 5.42338C79.383 -0.546909 66.0829 -1.6853 53.8676 3.47822C41.6523 8.64175 33.2012 18.9746 29.984 30.8544C18.1521 34.2428 7.94248 42.8426 2.95613 55.1313C-2.03012 67.4197 -0.699541 80.7016 5.42545 91.3769C-0.545024 102.14 -1.68342 115.44 3.48051 127.654C8.64399 139.87 18.9765 148.322 30.8566 151.538C34.2449 163.37 42.8447 173.58 55.1334 178.566C67.4218 183.552 80.7037 182.222 91.379 176.097C102.141 182.067 115.441 183.206 127.656 178.042C139.872 172.878 148.322 162.545 151.54 150.667C163.372 147.278 173.582 138.678 178.568 126.389Z" fill="#0B0B0A"/>
</svg>
