<svg width="183" height="183" viewBox="0 0 183 183" fill="none" xmlns="http://www.w3.org/2000/svg">
<path d="M179.241 127.064C184.227 114.775 182.897 101.493 176.772 90.8183C182.742 80.0558 183.88 66.756 178.717 54.5408C173.553 42.3256 163.22 33.8744 151.341 30.6575C147.952 18.8252 139.353 8.61526 127.064 3.62883C114.775 -1.35743 101.493 -0.0269331 90.8181 6.09819C80.0556 0.127895 66.7555 -1.0105 54.5402 4.15303C42.3249 9.31655 33.8738 19.6494 30.6566 31.5292C18.8247 34.9176 8.61508 43.5174 3.62874 55.8061C-1.35752 68.0945 -0.0269339 81.3764 6.09805 92.0517C0.127583 102.815 -1.01081 116.115 4.15312 128.329C9.3166 140.544 19.6492 148.996 31.5292 152.213C34.9175 164.045 43.5173 174.255 55.806 179.241C68.0944 184.227 81.3763 182.897 92.0516 176.772C102.813 182.742 116.113 183.88 128.329 178.717C140.544 173.553 148.995 163.22 152.212 151.341C164.045 147.953 174.254 139.353 179.241 127.064Z" fill="#D26909"/>
</svg>
