<svg width="188" height="53" viewBox="0 0 188 53" fill="none" xmlns="http://www.w3.org/2000/svg">
<path d="M29.976 30.088C29.976 35.816 26.904 38.68 20.76 38.68H9V8.872H20.52C23.56 8.872 25.816 9.496 27.288 10.744C28.76 11.96 29.496 13.912 29.496 16.6C29.496 19.288 28.392 21.336 26.184 22.744V23.032C28.712 24.024 29.976 26.376 29.976 30.088ZM18.84 33.352C19.8 33.352 20.44 33.144 20.76 32.728C21.112 32.28 21.288 31.384 21.288 30.04C21.288 28.664 21.112 27.704 20.76 27.16C20.408 26.584 19.768 26.296 18.84 26.296H17.304V33.352H18.84ZM18.888 21.64C19.624 21.64 20.136 21.416 20.424 20.968C20.712 20.52 20.856 19.736 20.856 18.616C20.856 17.464 20.696 16.664 20.376 16.216C20.088 15.736 19.576 15.496 18.84 15.496H17.304V21.64H18.888Z" fill="#F9F5F3"/>
<path d="M37.8056 39.16C33.9976 39.16 32.0936 37.048 32.0936 32.824V15.688H40.2536V30.856C40.2536 31.656 40.6056 32.056 41.3096 32.056C42.2056 32.056 42.9576 31.832 43.5656 31.384V15.688H51.6296V38.584H43.9976V36.904H43.8056C42.0456 38.408 40.0456 39.16 37.8056 39.16Z" fill="#F9F5F3"/>
<path d="M62.4679 25.768V38.68H54.4999V15.688H61.5079L61.9879 17.08H62.1799C62.9159 16.248 63.6519 15.72 64.3879 15.496C65.1559 15.24 66.3879 15.112 68.0839 15.112L67.7479 22.792H65.5399C64.2919 22.792 63.4599 22.984 63.0439 23.368C62.6599 23.752 62.4679 24.552 62.4679 25.768Z" fill="#F9F5F3"/>
<path d="M76.5068 40.792H81.4508C82.0268 40.792 82.3148 40.536 82.3148 40.024V39.832C82.3148 39.352 82.0268 39.112 81.4508 39.112H76.5068C75.9948 39.112 75.7387 39.368 75.7387 39.88V40.072C75.7387 40.552 75.9948 40.792 76.5068 40.792ZM78.4268 15.112H89.7548V20.488H86.2988V20.728C87.3228 21.624 87.8347 22.792 87.8347 24.232C87.8347 29.352 84.9388 31.912 79.1468 31.912H76.8428C76.2668 31.912 75.9788 32.184 75.9788 32.728C75.9788 33.24 76.2508 33.496 76.7948 33.496H83.3227C87.0027 33.496 88.8428 35.096 88.8428 38.296C88.8428 40.92 87.9628 42.808 86.2028 43.96C84.4428 45.144 82.0108 45.736 78.9068 45.736C75.8028 45.736 73.4508 45.4 71.8507 44.728C70.2827 44.088 69.4987 42.872 69.4987 41.08C69.4987 40.088 70.1228 39.256 71.3708 38.584V38.392C69.8028 37.528 69.0187 36.28 69.0187 34.648C69.0187 32.728 70.2507 31.272 72.7147 30.28C71.5627 29.448 70.6987 28.488 70.1227 27.4C69.5787 26.28 69.3068 24.808 69.3068 22.984C69.3068 20.456 70.1227 18.52 71.7547 17.176C73.4187 15.8 75.6428 15.112 78.4268 15.112ZM80.5387 24.328C80.5387 23.304 80.4107 22.568 80.1547 22.12C79.9307 21.64 79.4987 21.4 78.8587 21.4C78.2187 21.4 77.7707 21.64 77.5147 22.12C77.2907 22.568 77.1787 23.272 77.1787 24.232C77.1787 26.184 77.7548 27.16 78.9068 27.16C79.9948 27.16 80.5387 26.216 80.5387 24.328Z" fill="#F9F5F3"/>
<path d="M108.484 21.688L108.244 31.624C108.244 32.232 108.388 32.648 108.676 32.872C108.996 33.064 109.524 33.16 110.26 33.16L109.54 38.968C107.684 39.096 106.66 39.16 106.468 39.16C104.1 39.16 102.596 38.344 101.956 36.712H101.716C100.532 38.344 98.7081 39.16 96.2441 39.16C94.3561 39.16 92.9001 38.552 91.8761 37.336C90.8841 36.12 90.3881 34.456 90.3881 32.344C90.3881 29.688 91.2041 27.848 92.8361 26.824C94.5001 25.8 97.1081 25.128 100.66 24.808V23.656C100.66 22.76 100.212 22.312 99.3161 22.312C97.7801 22.312 95.3801 22.776 92.1161 23.704L90.9161 16.696C95.0121 15.64 98.4201 15.112 101.14 15.112C103.86 15.112 105.764 15.64 106.852 16.696C107.94 17.752 108.484 19.416 108.484 21.688ZM99.2201 33.544C100.404 33.544 100.996 32.92 100.996 31.672V29.32C99.8121 29.48 98.9641 29.736 98.4521 30.088C97.9721 30.408 97.7321 30.968 97.7321 31.768C97.7321 32.952 98.2281 33.544 99.2201 33.544ZM106.948 7V7.384C106.948 9.432 106.66 10.984 106.084 12.04C105.508 13.096 104.356 13.624 102.628 13.624C101.476 13.624 100.196 13.368 98.7881 12.856L97.6361 12.472V14.152H92.4041V13.672C92.4041 11.592 92.7081 10.04 93.3161 9.016C93.9241 7.96 94.9961 7.432 96.5321 7.432C97.0441 7.432 98.4681 7.736 100.804 8.344L101.764 8.584V7H106.948Z" fill="#F9F5F3"/>
<path d="M111.678 27.112C111.678 22.888 112.478 19.832 114.078 17.944C115.71 16.056 118.238 15.112 121.662 15.112C125.118 15.112 127.63 16.04 129.198 17.896C130.766 19.752 131.55 22.808 131.55 27.064C131.55 31.288 130.782 34.36 129.246 36.28C127.71 38.2 125.198 39.16 121.71 39.16C118.222 39.16 115.678 38.2 114.078 36.28C112.478 34.36 111.678 31.304 111.678 27.112ZM123.198 22.552C123.006 21.912 122.494 21.592 121.662 21.592C120.83 21.592 120.302 21.912 120.078 22.552C119.854 23.192 119.742 24.536 119.742 26.584V27.736C119.742 30.008 119.854 31.48 120.078 32.152C120.302 32.824 120.814 33.16 121.614 33.16C122.446 33.16 122.974 32.824 123.198 32.152C123.422 31.48 123.534 30.104 123.534 28.024V26.632C123.534 24.552 123.422 23.192 123.198 22.552Z" fill="#F9F5F3"/>
<path d="M155.021 38.68H147.005V16.504H143.549V11.464L148.445 8.872H155.021V38.68Z" fill="#FF8210"/>
<path d="M172.172 23.992V23.272C172.172 20.136 172.076 18.312 171.884 17.8C171.724 17.256 171.548 16.792 171.356 16.408C171.004 15.768 170.38 15.448 169.484 15.448C168.588 15.448 167.98 15.768 167.66 16.408C167.276 17.24 167.068 18.088 167.036 18.952C166.972 20.552 166.94 21.992 166.94 23.272V23.992C166.94 27.48 167.02 29.512 167.18 30.088C167.372 30.632 167.564 31.096 167.756 31.48C168.076 32.184 168.764 32.536 169.82 32.536C170.876 32.536 171.532 31.944 171.788 30.76C172.044 29.544 172.172 27.288 172.172 23.992ZM179.42 17.128C179.708 18.888 179.852 21.096 179.852 23.752C179.852 26.408 179.708 28.616 179.42 30.376C179.164 32.136 178.668 33.72 177.932 35.128C176.492 37.816 173.676 39.16 169.484 39.16C165.356 39.16 162.572 37.816 161.132 35.128C160.396 33.72 159.884 32.136 159.596 30.376C159.308 28.584 159.164 26.376 159.164 23.752C159.164 18.376 159.868 14.472 161.276 12.04C162.716 9.608 165.452 8.392 169.484 8.392C173.708 8.392 176.524 9.72 177.932 12.376C178.668 13.784 179.164 15.368 179.42 17.128Z" fill="#FF8210"/>
</svg>
