<svg width="1728" height="1066" viewBox="0 0 1728 1066" fill="none" xmlns="http://www.w3.org/2000/svg">
<g clip-path="url(#clip0_312_39)">
<path d="M1616.25 1063.84L1615.72 1066H1616.77L1616.25 1063.84Z" fill="#FF8210"/>
<path d="M1081.98 882.648H1092.22L1087.1 861.558L1081.98 882.648Z" fill="#FF8210"/>
<path d="M112.896 99.6761V46.0776C112.896 29.12 99.4008 19.8984 72.4025 19.8984H29.9519V125.788H72.4025C99.4008 125.788 112.896 116.634 112.896 99.6761ZM56.4479 110.864V35.1778H71.9118C80.5022 35.1778 85.8239 37.7504 85.8239 45.3208V100.433C85.8239 108.004 80.5022 110.864 71.9118 110.864H56.4479Z" fill="#FF8210"/>
<path d="M213.696 110.864H167.04V79.5944H203.904V64.6704H167.04V35.1778H213.696V19.8984H139.968V125.788H213.696V110.864Z" fill="#FF8210"/>
<path d="M311.616 110.864H267.264V19.8984H240.192V125.788H311.616V110.864Z" fill="#FF8210"/>
<path d="M363.456 19.8984H336.384V125.788H363.456V19.8984Z" fill="#FF8210"/>
<path d="M430.848 127.081C457.355 127.081 471.168 117.391 471.168 100.433V86.3457H445.824V101.493C445.824 109.063 440.303 111.789 431.712 111.789C423.122 111.789 417.6 109.063 417.6 101.493V44.2608C417.6 36.6904 423.122 33.8136 431.712 33.8136C440.303 33.8136 445.824 36.6904 445.824 44.2608V55.7871H471.168V45.3207C471.168 28.3628 457.355 18.6729 430.848 18.6729C404.341 18.6729 390.528 28.3631 390.528 45.3207V100.433C390.528 117.391 404.341 127.081 430.848 127.081Z" fill="#FF8210"/>
<path d="M524.736 19.8984H497.664V125.788H524.736V19.8984Z" fill="#FF8210"/>
<path d="M593.28 18.6729C566.773 18.6729 552.384 28.3631 552.384 45.3207V100.433C552.384 117.391 566.773 127.081 593.28 127.081C619.787 127.081 634.176 117.391 634.176 100.433V45.3207C634.176 28.3628 619.787 18.6729 593.28 18.6729ZM607.104 101.493C607.104 109.063 601.87 111.94 593.28 111.94C584.69 111.94 579.456 109.063 579.456 101.493V44.2608C579.456 36.6904 584.69 33.8136 593.28 33.8136C601.87 33.8136 607.104 36.6904 607.104 44.2608V101.493Z" fill="#FF8210"/>
<path d="M701.28 127.233C727.787 127.233 741.312 117.542 741.312 100.585V19.8984H715.968V101.645C715.968 109.215 710.735 111.94 702.144 111.94C693.554 111.94 688.32 109.215 688.32 101.645V19.8984H661.248V100.585C661.248 117.542 674.773 127.233 701.28 127.233Z" fill="#FF8210"/>
<path d="M807.449 127.081C833.956 127.081 847.682 117.391 847.682 100.433C847.682 70.1518 794.905 66.0637 794.905 44.2608C794.905 36.6904 799.839 33.8136 808.429 33.8136C817.018 33.8136 821.952 36.6904 821.952 44.2608V48.6804H847.296V45.3207C847.296 28.3628 833.859 18.6729 807.597 18.6729C781.336 18.6729 767.868 28.3631 767.868 45.3207C767.868 75.6022 820.652 79.6903 820.652 101.493C820.652 109.063 815.204 111.789 806.614 111.789C798.024 111.789 792.576 109.064 792.576 101.493V93.8077H767.232V100.433C767.232 117.391 780.942 127.081 807.449 127.081Z" fill="#FF8210"/>
<path d="M583.798 260.814H544.896V358.176H583.798C608.554 358.176 620.928 349.612 620.928 334.062V284.913C620.928 269.363 608.554 260.814 583.798 260.814ZM596.16 334.756C596.16 341.698 591.225 344.318 583.347 344.318H569.664V274.672H583.347C591.225 274.672 596.16 277.277 596.16 284.218V334.756Z" fill="#FF8210"/>
<path d="M713.088 274.672V260.814H645.696V358.176H713.088V344.318H670.464V315.891H704.448V301.678H670.464V274.672H713.088Z" fill="#FF8210"/>
<path d="M737.856 260.814V358.176H803.52V344.318H762.624V260.814H737.856Z" fill="#FF8210"/>
<path d="M850.752 260.814H825.984V358.176H850.752V260.814Z" fill="#FF8210"/>
<path d="M875.52 334.757C875.52 350.307 888.078 359.193 912.384 359.193C936.691 359.193 949.248 350.307 949.248 334.757V321.932H926.208V335.729C926.208 342.671 921.125 345.17 913.248 345.17C905.371 345.17 900.288 342.671 900.288 335.729V283.247C900.288 276.305 905.371 273.667 913.248 273.667C921.125 273.667 926.208 276.305 926.208 283.247V293.506H949.248V284.219C949.248 268.669 936.691 259.783 912.384 259.783C888.078 259.783 875.52 268.669 875.52 284.219V334.757Z" fill="#FF8210"/>
<path d="M998.784 260.814H974.016V358.176H998.784V260.814Z" fill="#FF8210"/>
<path d="M1099.01 284.219C1099.01 268.669 1085.87 259.783 1061.57 259.783C1037.26 259.783 1024.13 268.669 1024.13 284.219V334.757C1024.13 350.307 1037.26 359.193 1061.57 359.193C1085.87 359.193 1099.01 350.307 1099.01 334.757V284.219ZM1074.24 335.729C1074.24 342.671 1069.44 345.309 1061.57 345.309C1053.69 345.309 1048.9 342.671 1048.9 335.729V283.247C1048.9 276.305 1053.69 273.667 1061.57 273.667C1069.44 273.667 1074.24 276.305 1074.24 283.247V335.729Z" fill="#FF8210"/>
<path d="M1148.54 335.867V260.814H1123.78V334.895C1123.78 350.445 1136.33 359.331 1160.64 359.331C1184.95 359.331 1197.5 350.445 1197.5 334.895V260.814H1173.89V335.867C1173.89 342.809 1169.09 345.308 1161.22 345.308C1153.34 345.308 1148.54 342.809 1148.54 335.867Z" fill="#FF8210"/>
<path d="M1221.12 328.684V334.757C1221.12 350.307 1233.6 359.193 1257.91 359.193C1282.21 359.193 1294.75 350.307 1294.75 334.757C1294.75 306.989 1246.34 303.24 1246.34 283.247C1246.34 276.305 1250.91 273.667 1258.78 273.667C1266.66 273.667 1271.23 276.305 1271.23 283.247V287.11H1294.27V284.219C1294.27 268.669 1281.99 259.783 1257.91 259.783C1233.83 259.783 1221.5 268.669 1221.5 284.219C1221.5 311.987 1269.91 315.736 1269.91 335.729C1269.91 342.671 1264.91 345.17 1257.04 345.17C1249.16 345.17 1244.16 342.671 1244.16 335.729V328.684H1221.12Z" fill="#FF8210"/>
<path d="M61.9067 351.78H37.4399V412.898H61.9067C77.5215 412.898 85.2479 407.655 85.2479 397.847V366.847C85.2479 357.04 77.5209 351.78 61.9067 351.78ZM69.6959 398.285C69.6959 402.664 66.5907 404.37 61.6221 404.37H52.9919V360.308H61.6221C66.5907 360.308 69.6959 362.031 69.6959 366.41V398.285Z" fill="#FF8210"/>
<path d="M143.424 360.308V351.78H100.8V412.898H143.424V404.37H116.352V386.248H138.24V377.364H116.352V360.308H143.424Z" fill="#FF8210"/>
<path d="M158.976 351.78V412.898H200.448V404.37H174.528V351.78H158.976Z" fill="#FF8210"/>
<path d="M230.4 351.78H214.272V412.898H230.4V351.78Z" fill="#FF8210"/>
<path d="M292.608 372.39V366.41C292.608 356.602 284.611 350.997 269.28 350.997C253.949 350.997 245.952 356.601 245.952 366.41V398.285C245.952 408.093 253.949 413.698 269.28 413.698C284.611 413.698 292.608 408.093 292.608 398.285V390.156H277.632V398.898C277.632 403.277 274.536 404.853 269.568 404.853C264.6 404.853 261.504 403.277 261.504 398.898V365.797C261.504 361.418 264.6 359.754 269.568 359.754C274.536 359.754 277.632 361.418 277.632 365.797V372.39H292.608Z" fill="#FF8210"/>
<path d="M323.712 351.78H308.16V412.898H323.712V351.78Z" fill="#FF8210"/>
<path d="M387.072 398.285V366.41C387.072 356.602 378.499 350.997 363.168 350.997C347.837 350.997 339.264 356.601 339.264 366.41V398.285C339.264 408.093 347.837 413.698 363.168 413.698C378.499 413.697 387.072 408.093 387.072 398.285ZM371.52 398.898C371.52 403.277 368.424 404.941 363.456 404.941C358.488 404.941 355.392 403.277 355.392 398.898V365.797C355.392 361.418 358.488 359.754 363.456 359.754C368.424 359.754 371.52 361.418 371.52 365.797V398.898Z" fill="#FF8210"/>
<path d="M402.624 351.78V398.373C402.624 408.181 410.333 413.785 425.664 413.785C440.995 413.785 448.704 408.181 448.704 398.373V351.78H434.304V398.986C434.304 403.364 431.208 404.941 426.24 404.941C421.272 404.941 418.176 403.364 418.176 398.986V351.78H402.624Z" fill="#FF8210"/>
<path d="M510.336 368.481V366.41C510.336 356.602 502.433 350.997 487.244 350.997C472.055 350.997 464.2 356.601 464.2 366.41C464.2 383.924 494.695 386.288 494.695 398.898C494.695 403.277 491.644 404.853 486.676 404.853C481.708 404.853 478.656 403.277 478.656 398.898V394.42H463.68V398.285C463.68 408.093 471.652 413.698 486.983 413.698C502.314 413.698 510.275 408.093 510.275 398.285C510.275 380.771 479.761 378.407 479.761 365.797C479.761 361.418 482.592 359.754 487.561 359.754C492.53 359.754 495.36 361.418 495.36 365.797V368.481H510.336Z" fill="#FF8210"/>
<path d="M40.896 214.977H57.6V193.823L78.1886 151.017H62.5698L50.0757 180.288L37.5806 151.017H20.4751L40.896 193.823V214.977Z" fill="#FF8210"/>
<path d="M108.864 200.43V151.017H92.1599V199.788C92.1599 210.065 100.575 215.937 116.64 215.937C132.705 215.937 141.12 210.065 141.12 199.788V151.017H125.568V200.43C125.568 205.018 122.422 206.67 117.216 206.67C112.009 206.67 108.864 205.018 108.864 200.43Z" fill="#FF8210"/>
<path d="M226.944 214.977V151.017H204.23L193.075 196.622L181.026 151.017H158.4V214.977H172.8V169.69L184.745 214.977H200.215L211.392 169.048V214.977H226.944Z" fill="#FF8210"/>
<path d="M313.344 151.017H290.484L279.328 196.622L267.28 151.017H244.8V214.977H258.624V169.69L270.998 214.977H286.468L297.792 169.048V214.977H313.344V151.017Z" fill="#FF8210"/>
<path d="M348.48 214.977H365.184V193.823L385.618 151.017H369.999L357.504 180.288L345.01 151.017H327.904L348.48 193.823V214.977Z" fill="#FF8210"/>
<path d="M1369.6 120.813L1357.1 150.085L1344.61 120.813H1327.5L1348.42 163.641V184.773H1364.54V163.641L1385.21 120.813H1369.6Z" fill="#FF8210"/>
<path d="M1405.44 120.813V169.605C1405.44 179.883 1413.86 185.755 1429.92 185.755C1445.98 185.755 1454.4 179.883 1454.4 169.605V120.813H1438.85V170.248C1438.85 174.836 1435.41 176.487 1430.21 176.487C1425 176.487 1421.57 174.836 1421.57 170.248V120.813H1405.44Z" fill="#FF8210"/>
<path d="M1512 166.419L1499.95 120.813H1477.44V184.773H1491.26V139.508L1503.67 184.773H1519.14L1530.43 138.865V184.773H1545.98V120.813H1523.15L1512 166.419Z" fill="#FF8210"/>
<path d="M1604.2 166.419L1592.15 120.813H1569.6V184.773H1583.42V139.508L1595.87 184.773H1611.34L1622.59 138.865V184.773H1638.14V120.813H1615.36L1604.2 166.419Z" fill="#FF8210"/>
<path d="M1688.33 150.085L1675.83 120.813H1658.73L1679.62 163.641V184.773H1695.74V163.641L1716.44 120.813H1700.82L1688.33 150.085Z" fill="#FF8210"/>
<path d="M423.936 326.939L477.507 316.957H504V309.14H477.507L423.936 299.429V306.874L460.6 312.829L423.936 318.785V326.939Z" fill="#FF8210"/>
<path d="M484.978 269.343H423.936V276.805H485.783C491.53 276.805 493.599 278.409 493.599 280.891C493.599 283.373 491.53 284.977 485.783 284.977H423.936V292.795H484.978C497.851 292.795 505.207 288.726 505.207 281.069C505.207 273.411 497.851 269.343 484.978 269.343Z" fill="#FF8210"/>
<path d="M423.936 261.17H504V254.419H447.28L504 248.636V241.262L446.475 235.941H504V228.479H423.936V239.347L481.059 244.665L423.936 250.408V261.17Z" fill="#FF8210"/>
<path d="M423.936 220.307H504V213.2H447.28L504 207.521V200.147L446.475 194.723H504V187.261H423.936V198.232L481.059 203.55L423.936 209.293V220.307Z" fill="#FF8210"/>
<path d="M423.936 152.885V160.33L460.6 166.285L423.936 172.241V180.395L477.507 170.56H504V162.743H477.507L423.936 152.885Z" fill="#FF8210"/>
<path d="M1295.42 236.652V226.348H1259.3L1186.56 212.87V222.955L1236.23 231.023L1186.56 239.09V250.135L1259.3 236.652H1295.42Z" fill="#FF8210"/>
<path d="M1296.82 187.972C1296.82 177.599 1286.86 172.337 1269.42 172.337H1186.56V182.286H1270.51C1278.3 182.286 1281.1 184.255 1281.1 187.616C1281.1 190.978 1278.3 192.946 1270.51 192.946H1186.56V203.606H1269.42C1286.86 203.606 1296.82 198.344 1296.82 187.972Z" fill="#FF8210"/>
<path d="M1295.42 152.082H1218.35L1295.42 144.065V134.076L1217.26 126.854H1295.42V116.904H1186.56V131.483L1263.94 138.686L1186.56 146.466V161.321H1295.42V152.082Z" fill="#FF8210"/>
<path d="M1295.42 96.2952H1218.35L1295.42 88.3709V78.3821L1217.26 71.0665H1295.42V61.1172H1186.56V75.7893L1263.94 82.9926L1186.56 90.7722V105.534H1295.42V96.2952Z" fill="#FF8210"/>
<path d="M1295.42 38.3762V27.7162H1259.3L1186.56 14.3613V24.446L1236.23 32.5139L1186.56 40.5817V51.6269L1259.3 38.3762H1295.42Z" fill="#FF8210"/>
<path d="M892.8 52.0731C903.23 52.0731 908.928 48.2603 908.928 41.5875V19.9015C908.928 13.2291 903.23 9.41602 892.8 9.41602C882.37 9.41602 876.672 13.2287 876.672 19.9015V41.5875C876.672 48.2603 882.37 52.0731 892.8 52.0731ZM887.04 19.4847C887.04 16.506 889.132 15.3739 892.512 15.3739C895.892 15.3739 897.984 16.506 897.984 19.4847V42.0047C897.984 44.9835 895.892 46.1155 892.512 46.1155C889.132 46.1155 887.04 44.9835 887.04 42.0047V19.4847Z" fill="#FF8210"/>
<path d="M930.24 33.7566H942.336V51.5232H953.28V9.94922H942.336V27.7159H930.24V9.94922H919.296V51.5232H930.24V33.7566Z" fill="#FF8210"/>
<path d="M997.056 51.5232H1008V37.7743L1021.34 9.94922H1011.2L1003.09 28.9539L994.976 9.94922H983.87L997.056 37.7743V51.5232Z" fill="#FF8210"/>
<path d="M1059.84 45.4826H1041.41V33.4012H1055.81V27.3606H1041.41V15.9899H1059.84V9.94922H1031.04V51.5232H1059.84V45.4826Z" fill="#FF8210"/>
<path d="M1080.63 44.0612H1093.67L1095.5 51.5232H1106.22L1095.4 9.94922H1079.86L1069.04 51.5232H1078.79L1080.63 44.0612ZM1087.1 17.2858L1092.22 38.3759H1081.98L1087.1 17.2858Z" fill="#FF8210"/>
<path d="M1126.66 33.7566H1138.75V51.5232H1149.7V9.94922H1138.75V27.7159H1126.66V9.94922H1115.71V51.5232H1126.66V33.7566Z" fill="#FF8210"/>
<path d="M578.016 244.287C601.133 244.287 614.016 235.837 614.016 221.047V172.982C614.016 158.193 601.133 149.742 578.016 149.742C554.899 149.742 542.016 158.193 542.016 172.982V221.047C542.016 235.837 554.899 244.287 578.016 244.287ZM565.632 172.058C565.632 165.456 570.524 162.947 578.016 162.947C585.508 162.947 590.4 165.456 590.4 172.058V221.972C590.4 228.574 585.508 231.083 578.016 231.083C570.525 231.083 565.632 228.574 565.632 221.972V172.058Z" fill="#FF8210"/>
<path d="M661.248 203.606H688.32V243.403H711.936V150.661H688.32V190.458H661.248V150.661H637.632V243.403H661.248V203.606Z" fill="#FF8210"/>
<path d="M822.944 192.784L804.963 150.661H780.348L809.856 212.596V243.403H833.472V212.596L863.399 150.661H840.924L822.944 192.784Z" fill="#FF8210"/>
<path d="M948.672 164.164V150.661H884.16V243.403H948.672V229.9H907.776V202.895H940.032V189.748H907.776V164.164H948.672Z" fill="#FF8210"/>
<path d="M993.085 150.661L969.112 243.403H990.731L994.798 226.347H1023.69L1027.76 243.403H1051.52L1027.55 150.661H993.085ZM997.794 213.91L1009.14 167.166L1020.48 213.91H997.794Z" fill="#FF8210"/>
<path d="M1073.09 150.661V243.403H1096.7V203.606H1123.2V243.403H1147.39V150.661H1123.2V190.458H1096.7V150.661H1073.09Z" fill="#FF8210"/>
<path d="M21.312 257.972H42.048V325.486H62.208V257.972H83.52V246.602H21.312V257.972Z" fill="#FF8210"/>
<path d="M139.515 246.602H110.157L89.7339 325.486H108.151L111.616 311.272H136.232L139.697 325.486H159.937L139.515 246.602ZM114.168 300.257L123.833 260.436L133.497 300.257H114.168Z" fill="#FF8210"/>
<path d="M195.713 264.766C195.713 259.141 199.475 257.004 205.857 257.004C212.239 257.004 216 259.141 216 264.766V267.921H235.008V265.553C235.008 252.954 224.843 245.755 205.332 245.755C185.82 245.755 175.724 252.954 175.724 265.553C175.724 288.051 214.894 291.088 214.894 307.287C214.894 312.911 210.885 314.936 204.503 314.936C198.121 314.936 194.112 312.911 194.112 307.287V301.678H175.104V306.499C175.104 319.098 185.318 326.297 205.011 326.297C224.705 326.297 234.917 319.098 234.917 306.499C234.917 284.001 195.713 280.964 195.713 264.766Z" fill="#FF8210"/>
<path d="M313.344 246.602H251.136V257.972H271.872V325.486H292.032V257.972H313.344V246.602Z" fill="#FF8210"/>
<path d="M373.824 325.486V299.3L399.135 246.602H379.989L364.671 282.486L349.354 246.602H328.385L353.664 299.3V325.486H373.824Z" fill="#FF8210"/>
<path d="M885.312 410.41H896.256V374.521H907.2V368.48H874.368V374.521H885.312V410.41Z" fill="#FF8210"/>
<path d="M925.338 368.48L914.478 410.41H924.271L926.114 402.592H939.204L941.046 410.41H951.808L940.948 368.48H925.338ZM927.471 396.907L932.61 375.732L937.749 396.907H927.471Z" fill="#FF8210"/>
<path d="M963.648 397.618V400.207C963.648 406.907 969.13 410.735 979.601 410.735C990.074 410.735 995.53 406.907 995.53 400.207C995.53 388.244 974.696 386.629 974.696 378.016C974.696 375.025 976.723 373.889 980.116 373.889C983.509 373.889 985.535 375.025 985.535 378.016V379.852H995.327V378.435C995.327 371.735 990.06 367.907 979.686 367.907C969.31 367.907 964.01 371.735 964.01 378.435C964.01 390.398 984.873 392.013 984.873 400.626C984.873 403.617 982.838 404.693 979.444 404.693C976.05 404.693 974.015 403.617 974.015 400.626V397.618H963.648Z" fill="#FF8210"/>
<path d="M1008 374.521H1018.94V410.41H1029.89V374.521H1040.83V368.48H1008V374.521Z" fill="#FF8210"/>
<path d="M1077.12 410.41V396.379L1090.63 368.48H1080.45L1072.31 387.562L1064.16 368.48H1053.01L1066.75 396.379V410.41H1077.12Z" fill="#FF8210"/>
<path d="M1442.3 400.207V378.435C1442.3 371.735 1436.65 367.907 1426.18 367.907C1415.7 367.907 1410.05 371.735 1410.05 378.435V400.207C1410.05 406.907 1415.7 410.735 1426.18 410.735C1436.65 410.735 1442.3 406.907 1442.3 400.207ZM1420.42 400.626V378.016C1420.42 375.025 1422.78 373.889 1426.18 373.889C1429.57 373.889 1431.94 375.025 1431.94 378.016V400.626C1431.94 403.617 1429.57 404.753 1426.18 404.753C1422.78 404.753 1420.42 403.617 1420.42 400.626Z" fill="#FF8210"/>
<path d="M1457.28 368.48V410.41H1467.65V392.288H1479.74V410.41H1490.69V368.48H1479.74V386.247H1467.65V368.48H1457.28Z" fill="#FF8210"/>
<path d="M1529.47 368.48L1543.1 396.379V410.41H1553.47V396.379L1567.09 368.48H1556.91L1548.76 387.562L1540.62 368.48H1529.47Z" fill="#FF8210"/>
<path d="M1609.34 374.521V368.48H1580.54V410.41H1609.34V404.369H1590.91V391.932H1605.89V385.892H1590.91V374.521H1609.34Z" fill="#FF8210"/>
<path d="M1649.3 410.41H1660.06L1649.2 368.48H1633.59L1622.73 410.41H1632.53L1634.37 402.592H1647.46L1649.3 410.41ZM1635.73 396.907L1640.87 375.732L1646 396.907H1635.73Z" fill="#FF8210"/>
<path d="M1696.32 386.247H1684.22V368.48H1673.86V410.41H1684.22V392.288H1696.32V410.41H1707.26V368.48H1696.32V386.247Z" fill="#FF8210"/>
<path d="M889.92 124.366H904.896V74.2645H920.448V66.0918H874.368V74.2645H889.92V124.366Z" fill="#FF8210"/>
<path d="M925.3 124.366H938.968L941.539 113.706H959.808L962.38 124.366H977.401L962.244 66.0918H940.457L925.3 124.366ZM950.606 76.3368L957.779 105.889H943.434L950.606 76.3368Z" fill="#FF8210"/>
<path d="M989.066 79.9587C989.066 96.6551 1018.16 98.9089 1018.16 110.931C1018.16 115.105 1015.23 116.607 1010.49 116.607C1005.75 116.607 1002.82 115.105 1002.82 110.931V106.6H988.416V110.346C988.416 119.696 996.117 125.039 1010.73 125.039C1025.35 125.039 1032.99 119.696 1032.99 110.346C1032.99 93.65 1003.92 91.3958 1003.92 79.3745C1003.92 75.2004 1006.7 73.6142 1011.43 73.6142C1016.17 73.6142 1018.94 75.2004 1018.94 79.3745V81.7272H1032.77V79.9587C1032.77 70.6088 1025.4 65.2656 1010.92 65.2656C996.437 65.2656 989.066 70.6088 989.066 79.9587Z" fill="#FF8210"/>
<path d="M1044.86 74.2645H1060.42V124.366H1075.39V74.2645H1090.94V66.0918H1044.86V74.2645Z" fill="#FF8210"/>
<path d="M1129.34 92.7223L1117.98 66.0918H1102.41L1121.47 105.003V124.366H1135.87V105.003L1154.92 66.0918H1140.71L1129.34 92.7223Z" fill="#FF8210"/>
<path d="M1350.14 210.172C1337.45 210.172 1330.56 214.812 1330.56 222.931V249.32C1330.56 257.44 1337.45 262.08 1350.14 262.08C1362.84 262.08 1369.73 257.44 1369.73 249.32V222.931C1369.73 214.811 1362.84 210.172 1350.14 210.172ZM1357.06 249.827C1357.06 253.452 1354.26 254.83 1350.14 254.83C1346.03 254.83 1343.23 253.453 1343.23 249.827V222.423C1343.23 218.799 1346.03 217.421 1350.14 217.421C1354.26 217.421 1357.06 218.798 1357.06 222.423V249.827Z" fill="#FF8210"/>
<path d="M1388.74 210.713V261.526H1401.98V239.85H1416.38V261.526H1429.63V210.713H1416.38V232.388H1401.98V210.713H1388.74Z" fill="#FF8210"/>
<path d="M1507.97 261.526V244.68L1524.48 210.713H1512.14L1502.27 233.839L1492.4 210.713H1478.88L1495.3 244.68V261.526H1507.97Z" fill="#FF8210"/>
<path d="M1541.95 261.526H1577.09V254.419H1554.62V239.495H1572.48V232.033H1554.62V218.175H1577.09V210.713H1541.95V261.526Z" fill="#FF8210"/>
<path d="M1607.43 210.713L1594.27 261.526H1606.14L1608.37 252.287H1624.24L1626.47 261.526H1639.51L1626.35 210.713H1607.43ZM1610.02 245.536L1616.25 219.872L1622.48 245.536H1610.02Z" fill="#FF8210"/>
<path d="M1657.15 210.713V261.526H1670.4V239.85H1684.8V261.526H1698.05V210.713H1684.8V232.388H1670.4V210.713H1657.15Z" fill="#FF8210"/>
<path d="M551.232 378.435V400.207C551.232 406.907 556.888 410.735 567.36 410.735C577.832 410.735 583.488 406.907 583.488 400.207V378.435C583.488 371.735 577.832 367.907 567.36 367.907C556.888 367.907 551.232 371.736 551.232 378.435ZM573.12 378.016V400.626C573.12 403.617 570.754 404.753 567.36 404.753C563.966 404.753 561.6 403.617 561.6 400.626V378.016C561.6 375.025 563.966 373.889 567.36 373.889C570.754 373.889 573.12 375.025 573.12 378.016Z" fill="#FF8210"/>
<path d="M631.872 410.41V368.48H620.928V386.247H608.832V368.48H598.464V410.41H608.832V392.288H620.928V410.41H631.872Z" fill="#FF8210"/>
<path d="M694.656 410.41V396.379L708.271 368.48H698.09L689.945 387.562L681.8 368.48H670.65L684.288 396.379V410.41H694.656Z" fill="#FF8210"/>
<path d="M750.528 374.521V368.48H721.728V410.41H750.528V404.369H732.096V391.932H747.072V385.892H732.096V374.521H750.528Z" fill="#FF8210"/>
<path d="M775.548 402.592H788.638L790.481 410.41H801.243L790.383 368.48H774.772L763.913 410.41H773.706L775.548 402.592ZM782.045 375.732L787.184 396.907H776.907L782.045 375.732Z" fill="#FF8210"/>
<path d="M815.04 368.48V410.41H825.408V392.288H837.504V410.41H848.448V368.48H837.504V386.247H825.408V368.48H815.04Z" fill="#FF8210"/>
<path d="M1153.79 368.48L1145.64 387.562L1137.5 368.48H1126.35L1139.9 396.379V410.41H1150.27V396.379L1163.97 368.48H1153.79Z" fill="#FF8210"/>
<path d="M1177.34 368.48V400.267C1177.34 406.966 1182.71 410.794 1193.18 410.794C1203.66 410.794 1209.02 406.966 1209.02 400.267V368.48H1198.66V400.685C1198.66 403.676 1196.58 404.753 1193.18 404.753C1189.79 404.753 1187.71 403.676 1187.71 400.685V368.48H1177.34Z" fill="#FF8210"/>
<path d="M1268.93 410.41V368.48H1253.89L1246.61 398.209L1238.76 368.48H1224V410.41H1233.22V380.647L1241.18 410.41H1251.27L1258.56 380.229V410.41H1268.93Z" fill="#FF8210"/>
<path d="M1283.9 410.41H1293.12V380.647L1301.29 410.41H1311.37L1318.46 380.229V410.41H1328.83V368.48H1313.99L1306.72 398.209L1298.86 368.48H1283.9V410.41Z" fill="#FF8210"/>
<path d="M1355.9 410.41H1366.27V396.379L1379.88 368.48H1369.7L1361.55 387.562L1353.41 368.48H1342.26L1355.9 396.379V410.41Z" fill="#FF8210"/>
<path d="M1347.26 350.003H1365.12V289.241H1384.13V278.937H1328.26V289.241H1347.26V350.003Z" fill="#FF8210"/>
<path d="M1417.16 278.937L1398.72 350.003H1415.35L1418.48 337.211H1440.71L1443.84 350.003H1462.11L1443.67 278.937H1417.16ZM1420.78 327.617L1429.51 291.656L1438.24 327.617H1420.78Z" fill="#FF8210"/>
<path d="M1511.45 350.865C1529.24 350.865 1538.51 344.364 1538.51 332.986C1538.51 312.669 1503.13 309.927 1503.13 295.298C1503.13 290.219 1506.41 288.289 1512.17 288.289C1517.93 288.289 1521.22 290.218 1521.22 295.298V298.124H1538.5V296.009C1538.5 284.631 1529.39 278.13 1511.77 278.13C1494.15 278.13 1485.06 284.631 1485.06 296.009C1485.06 316.326 1520.45 319.069 1520.45 333.697C1520.45 338.776 1516.81 340.605 1511.04 340.605C1505.28 340.605 1501.63 338.776 1501.63 333.697V328.683H1484.35V332.986C1484.35 344.364 1493.67 350.865 1511.45 350.865Z" fill="#FF8210"/>
<path d="M1562.11 289.241H1581.12V350.003H1598.98V289.241H1617.98V278.937H1562.11V289.241Z" fill="#FF8210"/>
<path d="M1673.18 311.342L1659.35 278.937H1640.41L1663.49 326.485V350.003H1681.34V326.485L1704.31 278.937H1687.02L1673.18 311.342Z" fill="#FF8210"/>
<path d="M1332.86 99.4933H1354.75V27.3606H1377.22V15.2793H1310.98V27.3606H1332.86V99.4933Z" fill="#FF8210"/>
<path d="M1407.28 84.214H1433.62L1437.33 99.4933H1458.99L1437.14 15.2793H1405.72L1383.87 99.4933H1403.58L1407.28 84.214ZM1420.36 30.2371L1430.7 72.8433H1410.02L1420.36 30.2371Z" fill="#FF8210"/>
<path d="M1507.17 100.622C1528.24 100.622 1539.19 92.9188 1539.19 79.4389C1539.19 55.3675 1497.25 52.118 1497.25 34.7866C1497.25 28.7687 1501.25 26.4821 1508.08 26.4821C1514.91 26.4821 1518.91 28.7691 1518.91 34.7866V38.3762H1539.07V35.6291C1539.07 22.1492 1528.31 14.4463 1507.44 14.4463C1486.56 14.4463 1475.82 22.1492 1475.82 35.6291C1475.82 59.7005 1517.76 62.95 1517.76 80.2814C1517.76 86.2993 1513.36 88.4658 1506.53 88.4658C1499.7 88.4658 1495.3 86.2993 1495.3 80.2814V74.2649H1475.14V79.4389C1475.14 92.9188 1486.1 100.622 1507.17 100.622Z" fill="#FF8210"/>
<path d="M1578.82 99.4933H1600.7V27.3606H1623.17V15.2793H1556.35V27.3606H1578.82V99.4933Z" fill="#FF8210"/>
<path d="M1666.37 99.4933H1687.68V71.7357L1714.91 15.2793H1694.42L1678.04 53.6731L1661.65 15.2793H1639.21L1666.37 71.7357V99.4933Z" fill="#FF8210"/>
<path d="M112.896 519.596V465.998C112.896 449.04 99.4008 439.902 72.4025 439.902H29.9519V545.792H72.4025C99.4008 545.792 112.896 536.554 112.896 519.596ZM56.4479 530.512V454.826H71.9118C80.5022 454.826 85.8239 457.67 85.8239 465.241V520.353C85.8239 527.924 80.5022 530.512 71.9118 530.512H56.4479Z" fill="#FF8210"/>
<path d="M139.968 545.792H213.696V530.512H167.04V499.598H203.904V484.319H167.04V454.826H213.696V439.902H139.968V545.792Z" fill="#FF8210"/>
<path d="M311.616 530.512H267.264V439.902H240.192V545.792H311.616V530.512Z" fill="#FF8210"/>
<path d="M363.456 439.902H336.384V545.792H363.456V439.902Z" fill="#FF8210"/>
<path d="M430.848 547.001C457.355 547.001 471.168 537.31 471.168 520.353V506.35H445.824V521.413C445.824 528.983 440.303 531.709 431.712 531.709C423.122 531.709 417.6 528.983 417.6 521.413V464.181C417.6 456.61 423.122 453.734 431.712 453.734C440.303 453.734 445.824 456.61 445.824 464.181V475.436H471.168V465.241C471.168 448.283 457.355 438.593 430.848 438.593C404.341 438.593 390.528 448.283 390.528 465.241V520.353C390.528 537.311 404.341 547.001 430.848 547.001Z" fill="#FF8210"/>
<path d="M524.736 439.902H497.664V545.792H524.736V439.902Z" fill="#FF8210"/>
<path d="M593.28 438.593C566.773 438.593 552.384 448.283 552.384 465.241V520.353C552.384 537.311 566.773 547.001 593.28 547.001C619.787 547.001 634.176 537.311 634.176 520.353V465.241C634.176 448.283 619.787 438.593 593.28 438.593ZM607.104 521.413C607.104 528.984 601.87 531.86 593.28 531.86C584.69 531.86 579.456 528.984 579.456 521.413V464.181C579.456 456.611 584.69 453.734 593.28 453.734C601.87 453.734 607.104 456.611 607.104 464.181V521.413Z" fill="#FF8210"/>
<path d="M701.28 547.153C727.787 547.153 741.312 537.462 741.312 520.504V439.902H715.968V521.564C715.968 529.135 710.735 531.86 702.144 531.86C693.554 531.86 688.32 529.135 688.32 521.564V439.902H661.248V520.504C661.248 537.462 674.773 547.153 701.28 547.153Z" fill="#FF8210"/>
<path d="M767.899 465.241C767.899 495.522 820.667 499.61 820.667 521.413C820.667 528.983 815.212 531.709 806.622 531.709C798.031 531.709 792.576 528.983 792.576 521.413V513.812H767.232V520.353C767.232 537.311 780.942 547.001 807.449 547.001C833.956 547.001 847.682 537.311 847.682 520.353C847.682 490.072 794.905 485.984 794.905 464.181C794.905 456.61 799.839 453.734 808.429 453.734C817.018 453.734 821.952 456.61 821.952 464.181V468.684H847.296V465.241C847.296 448.283 833.859 438.593 807.597 438.593C781.336 438.592 767.899 448.283 767.899 465.241Z" fill="#FF8210"/>
<path d="M620.928 753.982V704.833C620.928 689.282 608.554 680.818 583.798 680.818H544.896V777.824H583.798C608.554 777.824 620.928 769.532 620.928 753.982ZM569.664 763.966V694.676H583.347C591.225 694.676 596.16 697.196 596.16 704.139V754.677C596.16 761.618 591.225 763.967 583.347 763.967L569.664 763.966Z" fill="#FF8210"/>
<path d="M713.088 763.966H670.464V735.54H704.448V721.682H670.464V694.676H713.088V680.818H645.696V777.824H713.088V763.966Z" fill="#FF8210"/>
<path d="M803.52 763.966H762.624V680.818H737.856V777.824H803.52V763.966Z" fill="#FF8210"/>
<path d="M850.752 680.818H825.984V777.824H850.752V680.818Z" fill="#FF8210"/>
<path d="M912.384 779.112C936.691 779.112 949.248 770.226 949.248 754.676V741.936H926.208V755.648C926.208 762.59 921.125 765.089 913.248 765.089C905.371 765.089 900.288 762.59 900.288 755.648V703.167C900.288 696.225 905.371 693.587 913.248 693.587C921.125 693.587 926.208 696.225 926.208 703.167V713.509H949.248V704.138C949.248 688.588 936.691 679.702 912.384 679.702C888.078 679.702 875.52 688.588 875.52 704.138V754.676C875.52 770.226 888.078 779.112 912.384 779.112Z" fill="#FF8210"/>
<path d="M998.784 680.818H974.016V777.824H998.784V680.818Z" fill="#FF8210"/>
<path d="M1099.01 704.138C1099.01 688.588 1085.87 679.702 1061.57 679.702C1037.26 679.702 1024.13 688.588 1024.13 704.138V754.676C1024.13 770.226 1037.26 779.112 1061.57 779.112C1085.87 779.112 1099.01 770.226 1099.01 754.676V704.138ZM1074.24 755.648C1074.24 762.59 1069.44 765.228 1061.57 765.228C1053.69 765.228 1048.9 762.59 1048.9 755.648V703.167C1048.9 696.225 1053.69 693.587 1061.57 693.587C1069.44 693.587 1074.24 696.225 1074.24 703.167V755.648Z" fill="#FF8210"/>
<path d="M1160.64 779.251C1184.95 779.251 1197.5 770.365 1197.5 754.815V680.818H1173.89V755.787C1173.89 762.729 1169.09 765.228 1161.22 765.228C1153.34 765.228 1148.54 762.729 1148.54 755.787V680.818H1123.78V754.815C1123.78 770.365 1136.33 779.251 1160.64 779.251Z" fill="#FF8210"/>
<path d="M1294.69 754.676C1294.69 726.908 1246.31 723.159 1246.31 703.166C1246.31 696.224 1250.89 693.586 1258.77 693.586C1266.65 693.586 1271.23 696.224 1271.23 703.166V707.113H1294.27V704.138C1294.27 688.588 1281.99 679.702 1257.91 679.702C1233.83 679.702 1221.5 688.588 1221.5 704.138C1221.5 731.906 1269.91 735.655 1269.91 755.648C1269.91 762.59 1264.91 765.089 1257.04 765.089C1249.16 765.089 1244.16 762.59 1244.16 755.648V748.687H1221.12V754.676C1221.12 770.226 1233.6 779.112 1257.91 779.112C1282.21 779.112 1294.69 770.226 1294.69 754.676Z" fill="#FF8210"/>
<path d="M61.9067 771.784H37.4399V832.902H61.9067C77.5215 832.902 85.2479 827.575 85.2479 817.767V786.768C85.2479 776.96 77.5209 771.784 61.9067 771.784ZM69.6959 818.205C69.6959 822.584 66.5907 824.018 61.6221 824.018H52.9919V780.312H61.6221C66.5907 780.312 69.6959 781.951 69.6959 786.33V818.205Z" fill="#FF8210"/>
<path d="M143.424 824.018H116.352V806.252H138.24V797.368H116.352V780.312H143.424V771.784H100.8V832.902H143.424V824.018Z" fill="#FF8210"/>
<path d="M158.976 771.784V832.902H200.448V824.018H174.528V771.784H158.976Z" fill="#FF8210"/>
<path d="M230.4 771.784H214.272V832.902H230.4V771.784Z" fill="#FF8210"/>
<path d="M292.608 792.393V786.33C292.608 776.521 284.611 770.917 269.28 770.917C253.949 770.917 245.952 776.521 245.952 786.33V818.205C245.952 828.013 253.949 833.617 269.28 833.617C284.611 833.617 292.608 828.013 292.608 818.205V810.16H277.632V818.817C277.632 823.196 274.536 824.772 269.568 824.772C264.6 824.772 261.504 823.196 261.504 818.817V785.716C261.504 781.338 264.6 779.674 269.568 779.674C274.536 779.674 277.632 781.338 277.632 785.716V792.393H292.608Z" fill="#FF8210"/>
<path d="M323.712 771.784H308.16V832.902H323.712V771.784Z" fill="#FF8210"/>
<path d="M363.168 770.917C347.837 770.917 339.264 776.521 339.264 786.33V818.205C339.264 828.013 347.837 833.617 363.168 833.617C378.499 833.617 387.072 828.013 387.072 818.205V786.33C387.072 776.521 378.499 770.917 363.168 770.917ZM371.52 818.817C371.52 823.196 368.424 824.86 363.456 824.86C358.488 824.86 355.392 823.196 355.392 818.817V785.716C355.392 781.338 358.488 779.674 363.456 779.674C368.424 779.674 371.52 781.338 371.52 785.716V818.817Z" fill="#FF8210"/>
<path d="M425.664 833.705C440.995 833.705 448.704 828.101 448.704 818.293V771.784H434.304V818.906C434.304 823.284 431.208 824.861 426.24 824.861C421.272 824.861 418.176 823.284 418.176 818.906V771.784H402.624V818.293C402.624 828.1 410.333 833.705 425.664 833.705Z" fill="#FF8210"/>
<path d="M510.336 788.129V786.33C510.336 776.521 502.433 770.917 487.244 770.917C472.055 770.917 464.2 776.521 464.2 786.33C464.2 803.843 494.695 806.208 494.695 818.818C494.695 823.196 491.644 824.773 486.676 824.773C481.708 824.773 478.656 823.196 478.656 818.817V814.424H463.68V818.205C463.68 828.013 471.652 833.617 486.983 833.617C502.314 833.617 510.275 828.013 510.275 818.205C510.275 800.691 479.761 798.326 479.761 785.716C479.761 781.338 482.592 779.674 487.561 779.674C492.53 779.674 495.36 781.338 495.36 785.716V788.129H510.336Z" fill="#FF8210"/>
<path d="M40.896 634.98H57.6V613.743L78.1886 570.665H62.5698L50.0757 599.937L37.5806 570.665H20.4751L40.896 613.743V634.98Z" fill="#FF8210"/>
<path d="M125.568 620.35C125.568 624.938 122.422 626.59 117.216 626.59C112.009 626.59 108.864 624.938 108.864 620.35V570.665H92.1599V619.707C92.1599 629.985 100.575 635.857 116.64 635.857C132.705 635.857 141.12 629.985 141.12 619.707V570.665H125.568V620.35Z" fill="#FF8210"/>
<path d="M193.075 616.27L181.026 570.665H158.4V634.98H172.8V589.609L184.745 634.98H200.215L211.392 588.968V634.98H226.944V570.665H204.23L193.075 616.27Z" fill="#FF8210"/>
<path d="M313.344 570.665H290.484L279.328 616.27L267.28 570.665H244.8V634.98H258.624V589.609L270.998 634.98H286.468L297.792 588.968V634.98H313.344V570.665Z" fill="#FF8210"/>
<path d="M348.48 634.98H365.184V613.743L385.618 570.665H369.999L357.504 599.937L345.01 570.665H327.904L348.48 613.743V634.98Z" fill="#FF8210"/>
<path d="M1369.6 540.462L1357.1 569.734L1344.61 540.462H1327.5L1348.42 583.561V604.777H1364.54V583.561L1385.21 540.462H1369.6Z" fill="#FF8210"/>
<path d="M1405.44 540.462V589.525C1405.44 599.803 1413.86 605.675 1429.92 605.675C1445.98 605.675 1454.4 599.803 1454.4 589.525V540.462H1438.85V590.168C1438.85 594.756 1435.41 596.407 1430.21 596.407C1425 596.407 1421.57 594.756 1421.57 590.168V540.462H1405.44Z" fill="#FF8210"/>
<path d="M1545.98 540.462H1523.15L1512 586.067L1499.95 540.462H1477.44V604.777H1491.26V559.427L1503.67 604.777H1519.14L1530.43 558.785V604.777H1545.98V540.462Z" fill="#FF8210"/>
<path d="M1638.14 604.777V540.462H1615.36L1604.2 586.067L1592.15 540.462H1569.6V604.777H1583.42V559.427L1595.87 604.777H1611.34L1622.59 558.785V604.777H1638.14Z" fill="#FF8210"/>
<path d="M1688.33 569.734L1675.83 540.462H1658.73L1679.62 583.561V604.777H1695.74V583.561L1716.44 540.462H1700.82L1688.33 569.734Z" fill="#FF8210"/>
<path d="M504 736.961V729.144H477.507L423.936 719.349V726.793L460.6 732.749L423.936 738.705V746.859L477.507 736.961H504Z" fill="#FF8210"/>
<path d="M484.978 689.347H423.936V696.809H485.783C491.53 696.809 493.599 698.236 493.599 700.717C493.599 703.199 491.53 704.626 485.783 704.626H423.936V712.443H484.978C497.851 712.443 505.207 708.552 505.207 700.895C505.207 693.237 497.851 689.347 484.978 689.347Z" fill="#FF8210"/>
<path d="M504 648.483H423.936V659.268L481.059 664.585L423.936 670.328V681.174H504V674.423H447.28L504 668.555V661.182L446.475 655.945H504V648.483Z" fill="#FF8210"/>
<path d="M504 607.265H423.936V618.152L481.059 623.47L423.936 629.214V639.955H504V633.204H447.28L504 627.441V620.067L446.475 614.727H504V607.265Z" fill="#FF8210"/>
<path d="M423.936 572.805V580.25L460.6 586.205L423.936 592.161V600.315L477.507 590.564H504V582.747H477.507L423.936 572.805Z" fill="#FF8210"/>
<path d="M1295.42 645.996H1259.3L1186.56 632.79V642.875L1236.23 650.942L1186.56 659.01V670.055L1259.3 656.656H1295.42V645.996Z" fill="#FF8210"/>
<path d="M1269.42 591.985H1186.56V601.935H1270.51C1278.3 601.935 1281.1 604.081 1281.1 607.442C1281.1 610.804 1278.3 612.95 1270.51 612.95H1186.56V623.61H1269.42C1286.86 623.61 1296.82 618.17 1296.82 607.798C1296.82 597.425 1286.86 591.985 1269.42 591.985Z" fill="#FF8210"/>
<path d="M1295.42 536.554H1186.56V551.404L1263.94 558.607L1186.56 566.387V580.97H1295.42V571.732H1218.35L1295.42 563.986V553.997L1217.26 546.858H1295.42V536.554Z" fill="#FF8210"/>
<path d="M1295.42 481.121H1186.56V495.709L1263.94 502.912L1186.56 510.692V525.538H1295.42V516.299H1218.35L1295.42 508.291V498.302L1217.26 491.07H1295.42V481.121Z" fill="#FF8210"/>
<path d="M1186.56 444.366L1236.23 452.434L1186.56 460.501V471.546L1259.3 458.025H1295.42V447.72H1259.3L1186.56 434.281V444.366Z" fill="#FF8210"/>
<path d="M908.928 461.507V439.821C908.928 433.149 903.23 429.336 892.8 429.336C882.37 429.336 876.672 433.149 876.672 439.821V461.507C876.672 468.18 882.37 471.993 892.8 471.993C903.23 471.993 908.928 468.18 908.928 461.507ZM887.04 461.925V439.405C887.04 436.426 889.132 435.294 892.512 435.294C895.892 435.294 897.984 436.426 897.984 439.405V461.925C897.984 464.903 895.892 466.035 892.512 466.035C889.132 466.035 887.04 464.903 887.04 461.925Z" fill="#FF8210"/>
<path d="M953.28 471.527V429.953H942.336V447.72H930.24V429.953H919.296V471.527H930.24V453.76H942.336V471.527H953.28Z" fill="#FF8210"/>
<path d="M983.87 429.953L997.056 457.694V471.527H1008V457.694L1021.34 429.953H1011.2L1003.09 448.958L994.976 429.953H983.87Z" fill="#FF8210"/>
<path d="M1059.84 465.486H1041.41V453.405H1055.81V447.364H1041.41V435.638H1059.84V429.953H1031.04V471.527H1059.84V465.486Z" fill="#FF8210"/>
<path d="M1095.5 471.527H1106.22L1095.4 429.953H1079.85L1069.04 471.527H1078.79L1080.63 464.065H1093.67L1095.5 471.527ZM1081.98 458.38L1087.1 437.29L1092.22 458.38H1081.98Z" fill="#FF8210"/>
<path d="M1115.71 471.527H1126.66V453.76H1138.75V471.527H1149.7V429.953H1138.75V447.72H1126.66V429.953H1115.71V471.527Z" fill="#FF8210"/>
<path d="M578.016 664.207C601.133 664.207 614.016 655.756 614.016 640.967V592.902C614.016 578.113 601.133 569.662 578.016 569.662C554.899 569.662 542.016 578.113 542.016 592.902V640.967C542.016 655.756 554.899 664.207 578.016 664.207ZM565.632 591.977C565.632 585.375 570.524 582.866 578.016 582.866C585.508 582.866 590.4 585.375 590.4 591.977V641.891C590.4 648.493 585.508 651.002 578.016 651.002C570.525 651.002 565.632 648.493 565.632 641.891V591.977Z" fill="#FF8210"/>
<path d="M661.248 623.61H688.32V663.052H711.936V570.665H688.32V610.462H661.248V570.665H637.632V663.052H661.248V623.61Z" fill="#FF8210"/>
<path d="M822.944 612.788L804.963 570.665H780.348L809.856 632.516V663.052H833.472V632.516L863.399 570.665H840.924L822.944 612.788Z" fill="#FF8210"/>
<path d="M948.672 583.812V570.665H884.16V663.052H948.672V649.904H907.776V622.899H940.032V609.752H907.776V583.812H948.672Z" fill="#FF8210"/>
<path d="M1027.76 663.052H1051.52L1027.55 570.665H993.086L969.113 663.052H990.732L994.799 646.351H1023.69L1027.76 663.052ZM997.794 633.914L1009.14 587.17L1020.48 633.914H997.794Z" fill="#FF8210"/>
<path d="M1123.2 663.052H1147.39V570.665H1123.2V610.462H1096.7V570.665H1073.09V663.052H1096.7V623.61H1123.2V663.052Z" fill="#FF8210"/>
<path d="M21.312 677.976H42.048V745.489H62.208V677.976H83.52V666.605H21.312V677.976Z" fill="#FF8210"/>
<path d="M110.157 666.605L89.7344 745.489H108.151L111.616 730.921H136.233L139.697 745.489H159.938L139.515 666.605H110.157ZM114.168 720.261L123.832 680.439L133.497 720.261H114.168Z" fill="#FF8210"/>
<path d="M195.713 684.686C195.713 679.062 199.475 676.925 205.857 676.925C212.239 676.925 216 679.062 216 684.686V687.926H235.008V685.474C235.008 672.875 224.843 665.676 205.332 665.676C185.82 665.676 175.724 672.875 175.724 685.474C175.724 707.971 214.894 711.009 214.894 727.207C214.894 732.832 210.885 734.857 204.503 734.857C198.121 734.857 194.112 732.832 194.112 727.207V721.682H175.104V726.42C175.104 739.019 185.318 746.218 205.011 746.218C224.705 746.218 234.917 739.019 234.917 726.42C234.917 703.922 195.713 700.885 195.713 684.686Z" fill="#FF8210"/>
<path d="M313.344 666.605H251.136V677.976H271.872V745.489H292.032V677.976H313.344V666.605Z" fill="#FF8210"/>
<path d="M373.824 745.489V719.22L399.135 666.605H379.989L364.671 702.49L349.354 666.605H328.385L353.664 719.22V745.489H373.824Z" fill="#FF8210"/>
<path d="M885.312 830.058H896.256V794.17H907.2V788.129H874.368V794.17H885.312V830.058Z" fill="#FF8210"/>
<path d="M926.114 822.596H939.204L941.046 830.058H951.809L940.949 788.129H925.338L914.478 830.058H924.271L926.114 822.596ZM932.61 795.736L937.749 816.911H927.471L932.61 795.736Z" fill="#FF8210"/>
<path d="M995.556 820.127C995.556 808.164 974.709 806.549 974.709 797.935C974.709 794.945 976.73 793.808 980.123 793.808C983.517 793.808 985.537 794.945 985.537 797.935V799.5H995.329V798.354C995.329 791.654 990.061 787.826 979.687 787.826C969.311 787.826 964.011 791.654 964.011 798.354C964.011 810.317 984.874 811.932 984.874 820.545C984.874 823.536 982.839 824.612 979.445 824.612C976.052 824.612 974.017 823.536 974.017 820.545V817.622H963.649V820.127C963.649 826.826 969.131 830.654 979.602 830.654C990.074 830.654 995.556 826.826 995.556 820.127Z" fill="#FF8210"/>
<path d="M1029.89 830.058V794.17H1040.83V788.129H1008V794.17H1018.94V830.058H1029.89Z" fill="#FF8210"/>
<path d="M1077.12 830.058V816.298L1090.63 788.129H1080.45L1072.31 807.21L1064.16 788.129H1053.01L1066.75 816.298V830.058H1077.12Z" fill="#FF8210"/>
<path d="M1426.18 787.826C1415.7 787.826 1410.05 791.654 1410.05 798.354V820.126C1410.05 826.826 1415.7 830.654 1426.18 830.654C1436.65 830.654 1442.3 826.826 1442.3 820.126V798.354C1442.3 791.655 1436.65 787.826 1426.18 787.826ZM1431.94 820.546C1431.94 823.536 1429.57 824.673 1426.18 824.673C1422.78 824.673 1420.42 823.536 1420.42 820.546V797.935C1420.42 794.945 1422.78 793.808 1426.18 793.808C1429.57 793.808 1431.94 794.945 1431.94 797.935V820.546Z" fill="#FF8210"/>
<path d="M1479.74 830.058H1490.69V788.129H1479.74V806.251H1467.65V788.129H1457.28V830.058H1467.65V812.292H1479.74V830.058Z" fill="#FF8210"/>
<path d="M1556.91 788.129L1548.76 807.21L1540.62 788.129H1529.47L1543.1 816.298V830.058H1553.47V816.298L1567.09 788.129H1556.91Z" fill="#FF8210"/>
<path d="M1609.34 794.17V788.129H1580.54V830.058H1609.34V824.018H1590.91V811.936H1605.89V805.896H1590.91V794.17H1609.34Z" fill="#FF8210"/>
<path d="M1634.37 822.596H1647.46L1649.3 830.058H1660.06L1649.2 788.129H1633.59L1622.73 830.058H1632.53L1634.37 822.596ZM1640.87 795.736L1646 816.911H1635.73L1640.87 795.736Z" fill="#FF8210"/>
<path d="M1707.26 830.058V788.129H1696.32V806.251H1684.22V788.129H1673.86V830.058H1684.22V812.292H1696.32V830.058H1707.26Z" fill="#FF8210"/>
<path d="M874.368 494.268H889.92V544.37H904.896V494.268H920.448V485.74H874.368V494.268Z" fill="#FF8210"/>
<path d="M962.38 544.37H977.401L962.244 485.74H940.457L925.301 544.37H938.969L941.54 533.71H959.809L962.38 544.37ZM943.434 525.893L950.606 496.341L957.779 525.893H943.434Z" fill="#FF8210"/>
<path d="M1010.73 544.959C1025.35 544.959 1032.99 539.616 1032.99 530.266C1032.99 513.57 1003.92 511.315 1003.92 499.294C1003.92 495.12 1006.7 493.534 1011.43 493.534C1016.17 493.534 1018.94 495.12 1018.94 499.294V501.731H1032.77V499.879C1032.77 490.529 1025.4 485.186 1010.92 485.186C996.437 485.186 989.029 490.528 989.029 499.879C989.029 516.575 1018.14 518.829 1018.14 530.85C1018.14 535.025 1015.22 536.527 1010.48 536.527C1005.74 536.527 1002.82 535.025 1002.82 530.85V526.604H988.416V530.266C988.416 539.616 996.117 544.959 1010.73 544.959Z" fill="#FF8210"/>
<path d="M1075.39 544.37V494.268H1090.94V485.74H1044.86V494.268H1060.42V544.37H1075.39Z" fill="#FF8210"/>
<path d="M1135.87 544.37V524.923L1154.92 485.74H1140.71L1129.34 512.371L1117.98 485.74H1102.41L1121.47 524.923V544.37H1135.87Z" fill="#FF8210"/>
<path d="M1369.73 669.24V642.851C1369.73 634.731 1362.84 630.092 1350.14 630.092C1337.45 630.092 1330.56 634.732 1330.56 642.851V669.24C1330.56 677.36 1337.45 682 1350.14 682C1362.84 682 1369.73 677.36 1369.73 669.24ZM1343.23 669.748V642.344C1343.23 638.719 1346.03 637.342 1350.14 637.342C1354.26 637.342 1357.06 638.719 1357.06 642.344V669.748C1357.06 673.372 1354.26 674.75 1350.14 674.75C1346.03 674.75 1343.23 673.372 1343.23 669.748Z" fill="#FF8210"/>
<path d="M1401.98 659.499H1416.38V681.529H1429.63V630.717H1416.38V652.392H1401.98V630.717H1388.74V681.529H1401.98V659.499Z" fill="#FF8210"/>
<path d="M1507.97 681.529V664.6L1524.48 630.717H1512.14L1502.27 653.844L1492.4 630.717H1478.88L1495.3 664.6V681.529H1507.97Z" fill="#FF8210"/>
<path d="M1577.09 674.067H1554.62V659.143H1572.48V652.037H1554.62V637.823H1577.09V630.717H1541.95V681.529H1577.09V674.067Z" fill="#FF8210"/>
<path d="M1626.47 681.529H1639.51L1626.35 630.717H1607.43L1594.27 681.529H1606.14L1608.37 672.291H1624.24L1626.47 681.529ZM1610.02 665.184L1616.25 639.52L1622.48 665.184H1610.02Z" fill="#FF8210"/>
<path d="M1657.15 630.717V681.529H1670.4V659.499H1684.8V681.529H1698.05V630.717H1684.8V652.392H1670.4V630.717H1657.15Z" fill="#FF8210"/>
<path d="M567.36 830.655C577.832 830.655 583.488 826.827 583.488 820.127V798.355C583.488 791.655 577.832 787.827 567.36 787.827C556.888 787.827 551.232 791.655 551.232 798.355V820.127C551.232 826.826 556.888 830.655 567.36 830.655ZM561.6 797.936C561.6 794.945 563.966 793.809 567.36 793.809C570.754 793.809 573.12 794.945 573.12 797.936V820.546C573.12 823.537 570.754 824.673 567.36 824.673C563.966 824.673 561.6 823.537 561.6 820.546V797.936Z" fill="#FF8210"/>
<path d="M631.872 830.058V788.129H620.928V806.251H608.832V788.129H598.464V830.058H608.832V812.292H620.928V830.058H631.872Z" fill="#FF8210"/>
<path d="M694.656 830.058V816.298L708.271 788.129H698.09L689.945 807.21L681.8 788.129H670.65L684.288 816.298V830.058H694.656Z" fill="#FF8210"/>
<path d="M721.728 830.058H750.528V824.018H732.096V811.936H747.072V805.896H732.096V794.17H750.528V788.129H721.728V830.058Z" fill="#FF8210"/>
<path d="M775.548 822.596H788.638L790.481 830.058H801.243L790.383 788.129H774.772L763.913 830.058H773.706L775.548 822.596ZM782.045 795.736L787.184 816.911H776.907L782.045 795.736Z" fill="#FF8210"/>
<path d="M837.504 806.251H825.408V788.129H815.04V830.058H825.408V812.292H837.504V830.058H848.448V788.129H837.504V806.251Z" fill="#FF8210"/>
<path d="M1145.64 807.21L1137.5 788.129H1126.35L1139.9 816.298V830.058H1150.27V816.298L1163.97 788.129H1153.79L1145.64 807.21Z" fill="#FF8210"/>
<path d="M1209.02 820.187V788.129H1198.66V820.605C1198.66 823.596 1196.58 824.672 1193.18 824.672C1189.79 824.672 1187.71 823.596 1187.71 820.605V788.129H1177.34V820.187C1177.34 826.886 1182.71 830.714 1193.18 830.714C1203.66 830.714 1209.02 826.886 1209.02 820.187Z" fill="#FF8210"/>
<path d="M1246.61 817.857L1238.76 788.129H1224V830.058H1233.22V800.567L1241.18 830.058H1251.27L1258.56 800.148V830.058H1268.93V788.129H1253.89L1246.61 817.857Z" fill="#FF8210"/>
<path d="M1318.46 800.148V830.058H1328.83V788.129H1313.99L1306.72 817.857L1298.86 788.129H1283.9V830.058H1293.12V800.567L1301.29 830.058H1311.37L1318.46 800.148Z" fill="#FF8210"/>
<path d="M1366.27 830.058V816.298L1379.88 788.129H1369.7L1361.55 807.21L1353.41 788.129H1342.26L1355.9 816.298V830.058H1366.27Z" fill="#FF8210"/>
<path d="M1384.13 698.94H1328.26V708.89H1347.26V770.007H1365.12V708.89H1384.13V698.94Z" fill="#FF8210"/>
<path d="M1462.11 770.007L1443.67 698.94H1417.16L1398.72 770.007H1415.35L1418.48 757.215H1440.71L1443.84 770.007H1462.11ZM1420.78 747.266L1429.51 711.304L1438.24 747.266H1420.78Z" fill="#FF8210"/>
<path d="M1511.45 770.785C1529.24 770.785 1538.51 764.283 1538.51 752.906C1538.51 732.589 1503.13 729.846 1503.13 715.218C1503.13 710.138 1506.41 708.208 1512.17 708.208C1517.93 708.208 1521.22 710.138 1521.22 715.218V718.128H1538.5V715.929C1538.5 704.551 1529.39 698.05 1511.77 698.05C1494.15 698.05 1485.06 704.551 1485.06 715.929C1485.06 736.246 1520.45 738.988 1520.45 753.617C1520.45 758.696 1516.81 760.524 1511.04 760.524C1505.28 760.524 1501.63 758.696 1501.63 753.617V748.687H1484.35V752.906C1484.35 764.284 1493.67 770.785 1511.45 770.785Z" fill="#FF8210"/>
<path d="M1617.98 698.94H1562.11V708.89H1581.12V770.007H1598.98V708.89H1617.98V698.94Z" fill="#FF8210"/>
<path d="M1673.18 731.346L1659.35 698.94H1640.41L1663.49 746.404V770.007H1681.34V746.404L1704.31 698.94H1687.02L1673.18 731.346Z" fill="#FF8210"/>
<path d="M1310.98 447.365H1332.86V519.497H1354.75V447.365H1377.22V435.283H1310.98V447.365Z" fill="#FF8210"/>
<path d="M1407.28 504.218H1433.62L1437.33 519.497H1458.99L1437.14 435.283H1405.72L1383.87 519.497H1403.58L1407.28 504.218ZM1420.36 450.241L1430.7 492.847H1410.02L1420.36 450.241Z" fill="#FF8210"/>
<path d="M1475.14 494.269V499.359C1475.14 512.839 1486.1 520.542 1507.17 520.542C1528.24 520.542 1539.19 512.839 1539.19 499.359C1539.19 475.287 1497.25 472.038 1497.25 454.707C1497.25 448.689 1501.25 446.402 1508.08 446.402C1514.91 446.402 1518.91 448.689 1518.91 454.707V458.025H1539.07V455.549C1539.07 442.069 1528.31 434.366 1507.44 434.366C1486.56 434.366 1475.82 442.069 1475.82 455.549C1475.82 479.62 1517.76 482.87 1517.76 500.201C1517.76 506.219 1513.36 508.386 1506.53 508.386C1499.7 508.386 1495.3 506.219 1495.3 500.201V494.269H1475.14Z" fill="#FF8210"/>
<path d="M1556.35 447.365H1578.82V519.497H1600.7V447.365H1623.17V435.283H1556.35V447.365Z" fill="#FF8210"/>
<path d="M1687.68 519.497V491.655L1714.91 435.283H1694.42L1678.04 473.677L1661.65 435.283H1639.21L1666.37 491.655V519.497H1687.68Z" fill="#FF8210"/>
<path d="M112.896 943.78V890.181C112.896 873.223 99.4008 863.815 72.4025 863.815H29.9519V970.06H72.4025C99.4008 970.06 112.896 960.738 112.896 943.78ZM56.4479 954.781V879.095H71.9118C80.5022 879.095 85.8239 881.854 85.8239 889.424V944.537C85.8239 952.108 80.5022 954.781 71.9118 954.781H56.4479Z" fill="#FF8210"/>
<path d="M213.696 879.095V863.815H139.968V970.06H213.696V954.781H167.04V923.867H203.904V908.587H167.04V879.095H213.696Z" fill="#FF8210"/>
<path d="M311.616 954.781H267.264V863.815H240.192V970.06H311.616V954.781Z" fill="#FF8210"/>
<path d="M363.456 863.815H336.384V970.06H363.456V863.815Z" fill="#FF8210"/>
<path d="M471.168 944.537V930.618H445.824V945.596C445.824 953.167 440.303 955.893 431.712 955.893C423.122 955.893 417.6 953.167 417.6 945.596V888.364C417.6 880.794 423.122 877.917 431.712 877.917C440.303 877.917 445.824 880.794 445.824 888.364V899.704H471.168V889.424C471.168 872.466 457.355 862.776 430.848 862.776C404.341 862.776 390.528 872.466 390.528 889.424V944.537C390.528 961.495 404.341 971.184 430.848 971.184C457.355 971.184 471.168 961.495 471.168 944.537Z" fill="#FF8210"/>
<path d="M524.736 863.815H497.664V970.06H524.736V863.815Z" fill="#FF8210"/>
<path d="M593.28 862.776C566.773 862.776 552.384 872.466 552.384 889.424V944.537C552.384 961.495 566.773 971.184 593.28 971.184C619.787 971.184 634.176 961.494 634.176 944.537V889.424C634.176 872.466 619.787 862.776 593.28 862.776ZM607.104 945.596C607.104 953.167 601.87 956.044 593.28 956.044C584.69 956.044 579.456 953.167 579.456 945.596V888.364C579.456 880.794 584.69 877.917 593.28 877.917C601.87 877.917 607.104 880.794 607.104 888.364V945.596Z" fill="#FF8210"/>
<path d="M715.968 945.748C715.968 953.319 710.735 956.044 702.144 956.044C693.554 956.044 688.32 953.319 688.32 945.748V863.815H661.248V944.688C661.248 961.646 674.773 971.336 701.28 971.336C727.787 971.336 741.312 961.646 741.312 944.688V863.815H715.968V945.748Z" fill="#FF8210"/>
<path d="M794.897 888.364C794.897 880.794 799.834 877.917 808.425 877.917C817.015 877.917 821.953 880.794 821.953 888.364V892.597H847.297V889.424C847.297 872.466 833.86 862.776 807.598 862.776C781.337 862.776 767.869 872.466 767.869 889.424C767.869 919.706 820.653 923.794 820.653 945.596C820.653 953.167 815.205 955.893 806.615 955.893C798.025 955.893 792.577 953.167 792.577 945.596V938.08H767.233V944.537C767.233 961.495 780.943 971.184 807.45 971.184C833.957 971.184 847.683 961.494 847.683 944.537C847.683 914.255 794.897 910.167 794.897 888.364Z" fill="#FF8210"/>
<path d="M50.0757 1024.21L37.5806 994.934H20.4751L40.896 1037.93V1059.25H57.6V1037.93L78.1886 994.934H62.5698L50.0757 1024.21Z" fill="#FF8210"/>
<path d="M125.568 1044.53C125.568 1049.12 122.422 1050.77 117.216 1050.77C112.009 1050.77 108.864 1049.12 108.864 1044.53V994.934H92.1599V1043.89C92.1599 1054.17 100.575 1060.04 116.64 1060.04C132.705 1060.04 141.12 1054.17 141.12 1043.89V994.934H125.568V1044.53Z" fill="#FF8210"/>
<path d="M193.075 1040.54L181.026 994.934H158.4V1059.25H172.8V1013.79L184.745 1059.25H200.215L211.392 1013.15V1059.25H226.944V994.934H204.23L193.075 1040.54Z" fill="#FF8210"/>
<path d="M279.328 1040.54L267.28 994.934H244.8V1059.25H258.624V1013.79L270.998 1059.25H286.468L297.792 1013.15V1059.25H313.344V994.934H290.484L279.328 1040.54Z" fill="#FF8210"/>
<path d="M357.504 1024.21L345.01 994.934H327.904L348.48 1037.93V1059.25H365.184V1037.93L385.618 994.934H369.999L357.504 1024.21Z" fill="#FF8210"/>
<path d="M1357.1 994.002L1344.61 964.73H1327.5L1348.42 1007.74V1029.05H1364.54V1007.74L1385.21 964.73H1369.6L1357.1 994.002Z" fill="#FF8210"/>
<path d="M1438.85 1014.35C1438.85 1018.94 1435.41 1020.59 1430.21 1020.59C1425 1020.59 1421.57 1018.94 1421.57 1014.35V964.73H1405.44V1013.71C1405.44 1023.99 1413.86 1029.86 1429.92 1029.86C1445.98 1029.86 1454.4 1023.99 1454.4 1013.71V964.73H1438.85V1014.35Z" fill="#FF8210"/>
<path d="M1512 1010.34L1499.95 964.73H1477.44V1029.05H1491.26V983.611L1503.67 1029.05H1519.14L1530.43 982.969V1029.05H1545.98V964.73H1523.15L1512 1010.34Z" fill="#FF8210"/>
<path d="M1604.2 1010.34L1592.15 964.73H1569.6V1029.05H1583.42V983.611L1595.87 1029.05H1611.34L1622.59 982.969V1029.05H1638.14V964.73H1615.36L1604.2 1010.34Z" fill="#FF8210"/>
<path d="M1688.33 994.002L1675.83 964.73H1658.73L1679.62 1007.74V1029.05H1695.74V1007.74L1716.44 964.73H1700.82L1688.33 994.002Z" fill="#FF8210"/>
<path d="M423.936 1042.34L481.059 1047.65L423.936 1053.4V1064.22H504V1057.47H447.28L504 1051.62V1044.25L446.475 1039H504V1031.53H423.936V1042.34Z" fill="#FF8210"/>
<path d="M423.936 996.988V1004.43L460.6 1010.39L423.936 1016.34V1024.5L477.507 1014.48H504V1007.02H477.507L423.936 996.988Z" fill="#FF8210"/>
<path d="M1186.56 1066H1235.7L1186.56 1056.97V1066Z" fill="#FF8210"/>
<path d="M1269.42 1016.25H1186.56V1026.2H1270.51C1278.3 1026.2 1281.1 1028.35 1281.1 1031.71C1281.1 1035.07 1278.3 1037.22 1270.51 1037.22H1186.56V1047.88H1269.42C1286.86 1047.88 1296.82 1042.44 1296.82 1032.07C1296.82 1021.69 1286.86 1016.25 1269.42 1016.25Z" fill="#FF8210"/>
<path d="M1295.42 960.821H1186.56V975.586L1263.94 982.79L1186.56 990.569V1005.24H1295.42V995.999H1218.35L1295.42 988.168V978.18L1217.26 970.771H1295.42V960.821Z" fill="#FF8210"/>
<path d="M1295.42 905.034H1186.56V919.892L1263.94 927.096L1186.56 934.875V949.451H1295.42V940.212H1218.35L1295.42 932.475V922.486L1217.26 915.339H1295.42V905.034Z" fill="#FF8210"/>
<path d="M1295.42 871.989H1259.3L1186.56 858.465V868.55L1236.23 876.617L1186.56 884.685V895.73L1259.3 882.293H1295.42V871.989Z" fill="#FF8210"/>
<path d="M892.8 853.519C882.37 853.519 876.672 857.331 876.672 864.004V885.69C876.672 892.363 882.37 896.176 892.8 896.176C903.23 896.176 908.928 892.363 908.928 885.69V864.004C908.928 857.332 903.23 853.519 892.8 853.519ZM897.984 886.107C897.984 889.086 895.892 890.218 892.512 890.218C889.132 890.218 887.04 889.086 887.04 886.107V863.587C887.04 860.608 889.132 859.477 892.512 859.477C895.892 859.477 897.984 860.609 897.984 863.587V886.107Z" fill="#FF8210"/>
<path d="M953.28 895.796V853.866H942.336V871.988H930.24V853.866H919.296V895.796H930.24V877.674H942.336V895.796H953.28Z" fill="#FF8210"/>
<path d="M997.056 895.796H1008V881.878L1021.34 853.866H1011.2L1003.09 872.871L994.976 853.866H983.87L997.056 881.878V895.796Z" fill="#FF8210"/>
<path d="M1059.84 859.907V853.866H1031.04V895.796H1059.84V889.755H1041.41V877.674H1055.81V871.633H1041.41V859.907H1059.84Z" fill="#FF8210"/>
<path d="M1095.4 853.866H1079.85L1069.04 895.796H1078.79L1080.63 887.978H1093.67L1095.5 895.796H1106.22L1095.4 853.866ZM1081.98 882.648L1087.1 861.558L1092.22 882.648H1081.98Z" fill="#FF8210"/>
<path d="M1115.71 853.866V895.796H1126.66V877.674H1138.75V895.796H1149.7V853.866H1138.75V871.988H1126.66V853.866H1115.71Z" fill="#FF8210"/>
<path d="M614.016 1017.09C614.016 1002.3 601.133 993.846 578.016 993.846C554.899 993.846 542.016 1002.3 542.016 1017.09V1065.15C542.016 1065.44 542.284 1065.72 542.293 1066H565.632V1016.16C565.632 1009.56 570.524 1007.05 578.016 1007.05C585.508 1007.05 590.4 1009.56 590.4 1016.16V1066H613.74C613.749 1065.72 614.016 1065.44 614.016 1065.15V1017.09Z" fill="#FF8210"/>
<path d="M688.32 994.934V1034.38H661.248V994.934H637.632V1066H661.248V1047.88H688.32V1066H711.936V994.934H688.32Z" fill="#FF8210"/>
<path d="M863.399 994.934H840.924L822.944 1037.06L804.963 994.934H780.348L809.856 1056.7V1066H833.472V1056.7L863.399 994.934Z" fill="#FF8210"/>
<path d="M940.032 1047.17V1034.02H907.776V1008.08H948.672V994.934H884.16V1066H907.776V1047.17H940.032Z" fill="#FF8210"/>
<path d="M993.085 994.934L974.645 1066H1045.99L1027.55 994.934H993.085ZM997.794 1058.18L1009.14 1011.44L1020.48 1058.18H997.794Z" fill="#FF8210"/>
<path d="M1123.2 994.934V1034.38H1096.7V994.934H1073.09V1066H1096.7V1047.88H1123.2V1066H1147.39V994.934H1123.2Z" fill="#FF8210"/>
<path d="M874.368 918.537H889.92V968.639H904.896V918.537H920.448V910.009H874.368V918.537Z" fill="#FF8210"/>
<path d="M940.457 910.009L925.3 968.639H938.968L941.539 957.979H959.808L962.38 968.639H977.401L962.244 910.009H940.457ZM943.434 949.806L950.606 920.254L957.779 949.806H943.434Z" fill="#FF8210"/>
<path d="M1003.95 923.478C1003.95 919.303 1006.71 917.717 1011.45 917.717C1016.18 917.717 1018.94 919.303 1018.94 923.478V925.999H1032.77V924.062C1032.77 914.712 1025.4 909.369 1010.92 909.369C996.437 909.369 989.03 914.712 989.03 924.062C989.03 940.758 1018.14 943.012 1018.14 955.034C1018.14 959.208 1015.22 960.711 1010.48 960.711C1005.74 960.711 1002.82 959.208 1002.82 955.034V950.872H988.417V954.449C988.417 963.799 996.117 969.142 1010.73 969.142C1025.35 969.142 1032.99 963.799 1032.99 954.449C1032.99 937.753 1003.95 935.499 1003.95 923.478Z" fill="#FF8210"/>
<path d="M1044.86 918.537H1060.42V968.639H1075.39V918.537H1090.94V910.009H1044.86V918.537Z" fill="#FF8210"/>
<path d="M1129.34 936.639L1117.98 910.009H1102.41L1121.47 949.106V968.639H1135.87V949.106L1154.92 910.009H1140.71L1129.34 936.639Z" fill="#FF8210"/>
<path d="M1350.17 1054.27C1338.03 1054.27 1331.17 1058.52 1330.59 1066H1343.5C1343.74 1062.77 1346.27 1061.52 1350.17 1061.52C1354.08 1061.52 1356.6 1062.77 1356.85 1066H1369.76C1369.18 1058.52 1362.32 1054.27 1350.17 1054.27Z" fill="#FF8210"/>
<path d="M1429.63 1054.98H1416.38V1066H1429.63V1054.98Z" fill="#FF8210"/>
<path d="M1401.98 1054.98H1388.74V1066H1401.98V1054.98Z" fill="#FF8210"/>
<path d="M1492.4 1054.98H1478.88L1484.25 1066H1497.16L1492.4 1054.98Z" fill="#FF8210"/>
<path d="M1512.14 1054.98L1507.38 1066H1519.12L1524.48 1054.98H1512.14Z" fill="#FF8210"/>
<path d="M1577.09 1062.09V1054.98H1541.95V1066H1554.62V1062.09H1577.09Z" fill="#FF8210"/>
<path d="M1607.43 1054.98L1604.54 1066H1615.72L1616.25 1063.84L1616.77 1066H1629.24L1626.35 1054.98H1607.43Z" fill="#FF8210"/>
<path d="M1698.05 1054.98H1684.8V1066H1698.05V1054.98Z" fill="#FF8210"/>
<path d="M1670.4 1054.98H1657.15V1066H1670.4V1054.98Z" fill="#FF8210"/>
<path d="M1332.86 943.766H1354.75V871.633H1377.22V859.552H1310.98V871.633H1332.86V943.766Z" fill="#FF8210"/>
<path d="M1405.72 859.552L1383.87 943.766H1403.58L1407.28 928.486H1433.62L1437.33 943.766H1458.99L1437.13 859.552H1405.72ZM1410.02 917.116L1420.36 874.51L1430.7 917.116H1410.02Z" fill="#FF8210"/>
<path d="M1507.17 944.724C1528.24 944.724 1539.19 937.021 1539.19 923.541C1539.19 899.47 1497.25 896.22 1497.25 878.889C1497.25 872.871 1501.25 870.584 1508.08 870.584C1514.91 870.584 1518.91 872.871 1518.91 878.889V882.292H1539.07V879.731C1539.07 866.251 1528.31 858.549 1507.44 858.549C1486.56 858.549 1475.82 866.252 1475.82 879.731C1475.82 903.803 1517.76 907.053 1517.76 924.384C1517.76 930.402 1513.36 932.568 1506.53 932.568C1499.7 932.568 1495.3 930.402 1495.3 924.384V918.536H1475.14V923.541C1475.14 937.021 1486.1 944.724 1507.17 944.724Z" fill="#FF8210"/>
<path d="M1578.82 943.766H1600.7V871.633H1623.17V859.552H1556.35V871.633H1578.82V943.766Z" fill="#FF8210"/>
<path d="M1666.37 943.766H1687.68V915.839L1714.91 859.552H1694.42L1678.04 897.946L1661.65 859.552H1639.21L1666.37 915.839V943.766Z" fill="#FF8210"/>
</g>
<defs>
<clipPath id="clip0_312_39">
<rect width="1728" height="1066" fill="white"/>
</clipPath>
</defs>
</svg>
