<svg width="32" height="32" viewBox="0 0 32 32" fill="none" xmlns="http://www.w3.org/2000/svg">
<path fill-rule="evenodd" clip-rule="evenodd" d="M10.1559 15.0625C10.1559 14.545 10.5694 14.125 11.079 14.125C11.5885 14.125 12.002 14.545 12.002 15.0625V26.3125C12.002 26.8309 11.5885 27.25 11.079 27.25C10.5694 27.25 10.1559 26.8309 10.1559 26.3125V15.0625ZM14.7713 15.0625C14.7713 14.545 15.1848 14.125 15.6943 14.125C16.2039 14.125 16.6174 14.545 16.6174 15.0625V26.3125C16.6174 26.8309 16.2039 27.25 15.6943 27.25C15.1848 27.25 14.7713 26.8309 14.7713 26.3125V15.0625ZM19.3866 15.0625C19.3866 14.545 19.8002 14.125 20.3097 14.125C20.8193 14.125 21.2328 14.545 21.2328 15.0625V26.3125C21.2328 26.8309 20.8193 27.25 20.3097 27.25C19.8002 27.25 19.3866 26.8309 19.3866 26.3125V15.0625ZM5.54049 27.25C5.54049 29.3209 7.19372 31 9.2328 31H22.1559C24.195 31 25.8482 29.3209 25.8482 27.25V12.25H5.54049V27.25ZM18.4636 4.75H12.9251V3.8125C12.9251 3.29406 13.3386 2.875 13.8482 2.875H17.5405C18.05 2.875 18.4636 3.29406 18.4636 3.8125V4.75ZM25.8482 4.75H20.3097V2.875C20.3097 1.84 19.4826 1 18.4636 1H12.9251C11.906 1 11.079 1.84 11.079 2.875V4.75H5.54049C4.52141 4.75 3.69434 5.59 3.69434 6.625V8.5C3.69434 9.535 4.52048 10.3741 5.53956 10.375H25.85C26.8682 10.3741 27.6943 9.535 27.6943 8.5V6.625C27.6943 5.59 26.8673 4.75 25.8482 4.75Z" fill="#FF8210"/>
</svg>
