<svg width="32" height="32" viewBox="0 0 32 32" fill="none" xmlns="http://www.w3.org/2000/svg">
<path d="M22.8395 18.9801C22.4595 18.8001 20.6395 17.9001 20.2995 17.7601C19.9595 17.6201 19.7195 17.5801 19.4595 17.9601C19.1995 18.3401 18.4995 19.1601 18.2795 19.4201C18.0595 19.6801 17.8595 19.7001 17.4795 19.4201C16.388 18.9821 15.38 18.3597 14.4995 17.5801C13.7024 16.8296 13.0276 15.9591 12.4995 15.0001C12.2795 14.6401 12.4995 14.4401 12.6595 14.2401C12.8195 14.0401 13.0195 13.8201 13.2195 13.6001C13.3657 13.4098 13.4867 13.2014 13.5795 12.9801C13.6291 12.8771 13.6549 12.7643 13.6549 12.6501C13.6549 12.5358 13.6291 12.423 13.5795 12.3201C13.5795 12.1401 12.7395 10.3201 12.4195 9.58007C12.0995 8.84007 11.8195 8.94007 11.5995 8.94007H10.7995C10.4184 8.95493 10.0587 9.12036 9.79947 9.40007C9.38099 9.79942 9.04951 10.2809 8.82581 10.8143C8.60211 11.3478 8.49101 11.9217 8.49947 12.5001C8.60177 13.92 9.12389 15.2775 9.99947 16.4001C11.6062 18.7869 13.8044 20.7164 16.3795 22.0001C17.2595 22.3801 17.9395 22.6001 18.4795 22.7801C19.2378 23.0093 20.0393 23.0572 20.8195 22.9201C21.3377 22.8149 21.8287 22.6045 22.2622 22.3017C22.6957 21.999 23.0624 21.6104 23.3395 21.1601C23.5701 20.604 23.6461 19.9958 23.5595 19.4001C23.4595 19.2601 23.2195 19.1601 22.8395 18.9801Z" fill="#DEDDD8"/>
<path d="M26.5797 5.36002C25.1965 3.96379 23.5478 2.85867 21.7307 2.10985C19.9136 1.36103 17.965 0.983666 15.9997 1.00002C13.3963 1.01365 10.842 1.71009 8.59197 3.01978C6.34194 4.32948 4.47492 6.2066 3.17736 8.46365C1.87981 10.7207 1.19715 13.2787 1.19755 15.8821C1.19796 18.4856 1.88143 21.0434 3.17969 23.3L1.17969 31L9.05969 29C11.2382 30.1854 13.6796 30.8044 16.1597 30.8H15.9997C18.9555 30.8193 21.8501 29.9578 24.3144 28.3253C26.7786 26.6929 28.7008 24.3635 29.8359 21.6342C30.9709 18.9049 31.2674 15.8994 30.6875 13.001C30.1075 10.1025 28.6775 7.44247 26.5797 5.36002ZM15.9997 28.24C13.7808 28.2418 11.6032 27.6403 9.69969 26.5L9.25969 26.24L4.57969 27.46L5.81969 22.9L5.53969 22.44C3.9424 19.8677 3.34491 16.7985 3.86058 13.8149C4.37626 10.8312 5.96922 8.14059 8.33722 6.25359C10.7052 4.36659 13.6835 3.41446 16.707 3.57786C19.7305 3.74125 22.5888 5.00881 24.7397 7.14002C25.8928 8.28381 26.8067 9.64564 27.4282 11.1462C28.0497 12.6467 28.3663 14.2559 28.3597 15.88C28.3544 19.1565 27.0505 22.2972 24.7337 24.614C22.4169 26.9308 19.2761 28.2347 15.9997 28.24Z" fill="#DEDDD8"/>
</svg>
